<?xml version="1.0" encoding="UTF-8" standalone="no"?>
<!DOCTYPE svg PUBLIC "-//W3C//DTD SVG 1.1//EN"
 "http://www.w3.org/Graphics/SVG/1.1/DTD/svg11.dtd">
<!-- Generated by graphviz version 2.40.1 (20161225.0304)
 -->
<!-- Title: G Pages: 1 -->
<svg width="564pt" height="362pt"
 viewBox="0.00 0.00 564.00 362.00" xmlns="http://www.w3.org/2000/svg" xmlns:xlink="http://www.w3.org/1999/xlink">
<g id="graph0" class="graph" transform="scale(1 1) rotate(0) translate(4 358)">
<title>G</title>
<polygon fill="#ffffff" stroke="transparent" points="-4,4 -4,-358 560,-358 560,4 -4,4"/>
<!-- A0 -->
<g id="node1" class="node">
<title>A0</title>
<polygon fill="none" stroke="#000000" points="112,-322 112,-354 233,-354 233,-322 112,-322"/>
<text text-anchor="start" x="145.415" y="-335" font-family="Helvetica,sans-Serif" font-size="10.00" fill="#000000">+A:HotDrink</text>
<polygon fill="none" stroke="#000000" points="112,-278 112,-322 233,-322 233,-278 112,-278"/>
<text text-anchor="start" x="149.8595" y="-303" font-family="Helvetica,sans-Serif" font-size="10.00" fill="#000000">+milk:bool</text>
<text text-anchor="start" x="146.24" y="-291" font-family="Helvetica,sans-Serif" font-size="10.00" fill="#000000">+sugar:bool</text>
<polygon fill="none" stroke="#000000" points="112,-222 112,-278 233,-278 233,-222 112,-222"/>
<text text-anchor="start" x="139.8615" y="-259" font-family="Helvetica,sans-Serif" font-size="10.00" fill="#000000">+Drink():bool:v</text>
<text text-anchor="start" x="144.585" y="-247" font-family="Helvetica,sans-Serif" font-size="10.00" fill="#000000">+AddMilk():v</text>
<text text-anchor="start" x="140.131" y="-235" font-family="Helvetica,sans-Serif" font-size="10.00" fill="#000000">+AddSugar():v</text>
<polygon fill="none" stroke="#000000" points="112,-190 112,-222 233,-222 233,-190 112,-190"/>
<text text-anchor="start" x="121.8005" y="-203" font-family="Helvetica,sans-Serif" font-size="10.00" fill="#000000">+(milk:bool,sugar:bool)</text>
</g>
<!-- A2 -->
<g id="node3" class="node">
<title>A2</title>
<polygon fill="none" stroke="#000000" points="0,-108 0,-140 272,-140 272,-108 0,-108"/>
<text text-anchor="start" x="103.906" y="-121" font-family="Helvetica,sans-Serif" font-size="10.00" fill="#000000">+CupOfCoffee</text>
<polygon fill="none" stroke="#000000" points="0,-76 0,-108 272,-108 272,-76 0,-76"/>
<text text-anchor="start" x="97.237" y="-89" font-family="Helvetica,sans-Serif" font-size="10.00" fill="#000000">+beanType:string</text>
<polygon fill="none" stroke="#000000" points="0,-32 0,-76 272,-76 272,-32 0,-32"/>
<text text-anchor="start" x="103.9175" y="-57" font-family="Helvetica,sans-Serif" font-size="10.00" fill="#000000">+Refill():bool:v</text>
<text text-anchor="start" x="113.0835" y="-45" font-family="Helvetica,sans-Serif" font-size="10.00" fill="#000000">+Wash():v</text>
<polygon fill="none" stroke="#000000" points="0,0 0,-32 272,-32 272,0 0,0"/>
<text text-anchor="start" x="9.7345" y="-13" font-family="Helvetica,sans-Serif" font-size="10.00" fill="#000000">+(milk:bool,sugar:bool,beanType:string):base(milk,sugar)</text>
</g>
<!-- A0&#45;&gt;A2 -->
<g id="edge1" class="edge">
<title>A0&#45;&gt;A2</title>
<path fill="none" stroke="#000000" stroke-dasharray="5,2" d="M155.5536,-179.7176C153.182,-166.4101 150.7741,-152.8992 148.4963,-140.1183"/>
<polygon fill="#000000" stroke="#000000" points="157.3574,-189.8389 151.1726,-180.7836 156.4801,-184.9164 155.6028,-179.994 155.6028,-179.994 155.6028,-179.994 156.4801,-184.9164 160.033,-179.2044 157.3574,-189.8389 157.3574,-189.8389"/>
</g>
<!-- A3 -->
<g id="node4" class="node">
<title>A3</title>
<polygon fill="none" stroke="#000000" points="290,-108 290,-140 556,-140 556,-108 290,-108"/>
<text text-anchor="start" x="397.0195" y="-121" font-family="Helvetica,sans-Serif" font-size="10.00" fill="#000000">+CupOfTea</text>
<polygon fill="none" stroke="#000000" points="290,-76 290,-108 556,-108 556,-76 290,-76"/>
<text text-anchor="start" x="387.297" y="-89" font-family="Helvetica,sans-Serif" font-size="10.00" fill="#000000">+leafType:string</text>
<polygon fill="none" stroke="#000000" points="290,-32 290,-76 556,-76 556,-32 290,-32"/>
<text text-anchor="start" x="390.9175" y="-57" font-family="Helvetica,sans-Serif" font-size="10.00" fill="#000000">+Refill():bool:v</text>
<text text-anchor="start" x="400.0835" y="-45" font-family="Helvetica,sans-Serif" font-size="10.00" fill="#000000">+Wash():v</text>
<polygon fill="none" stroke="#000000" points="290,0 290,-32 556,-32 556,0 290,0"/>
<text text-anchor="start" x="299.7945" y="-13" font-family="Helvetica,sans-Serif" font-size="10.00" fill="#000000">+(milk:bool,sugar:bool,leafType:string):base(milk,sugar)</text>
</g>
<!-- A0&#45;&gt;A3 -->
<g id="edge3" class="edge">
<title>A0&#45;&gt;A3</title>
<path fill="none" stroke="#000000" stroke-dasharray="5,2" d="M240.88,-216.5667C270.184,-192.9834 304.6989,-165.2064 335.7573,-140.2112"/>
<polygon fill="#000000" stroke="#000000" points="232.7601,-223.1014 237.7293,-213.326 236.6554,-219.9666 240.5506,-216.8318 240.5506,-216.8318 240.5506,-216.8318 236.6554,-219.9666 243.372,-220.3375 232.7601,-223.1014 232.7601,-223.1014"/>
</g>
<!-- A1 -->
<g id="node2" class="node">
<title>A1</title>
<polygon fill="none" stroke="#000000" points="323,-316 323,-348 452,-348 452,-316 323,-316"/>
<text text-anchor="start" x="371.2435" y="-329" font-family="Helvetica,sans-Serif" font-size="10.00" fill="#000000">+I:ICup</text>
<polygon fill="none" stroke="#000000" points="323,-272 323,-316 452,-316 452,-272 323,-272"/>
<text text-anchor="start" x="360.1355" y="-297" font-family="Helvetica,sans-Serif" font-size="10.00" fill="#000000">+color:string</text>
<text text-anchor="start" x="361.8" y="-285" font-family="Helvetica,sans-Serif" font-size="10.00" fill="#000000">+volume:int</text>
<polygon fill="none" stroke="#000000" points="323,-228 323,-272 452,-272 452,-228 323,-228"/>
<text text-anchor="start" x="359.307" y="-253" font-family="Helvetica,sans-Serif" font-size="10.00" fill="#000000">+Refill():bool</text>
<text text-anchor="start" x="368.473" y="-241" font-family="Helvetica,sans-Serif" font-size="10.00" fill="#000000">+Wash()</text>
<polygon fill="none" stroke="#000000" points="323,-196 323,-228 452,-228 452,-196 323,-196"/>
<text text-anchor="start" x="332.6365" y="-209" font-family="Helvetica,sans-Serif" font-size="10.00" fill="#000000">+(color:string,volume:int)</text>
</g>
<!-- A1&#45;&gt;A2 -->
<g id="edge2" class="edge">
<title>A1&#45;&gt;A2</title>
<path fill="none" stroke="#000000" d="M314.4409,-213.6058C285.9169,-190.6502 252.9254,-164.0993 223.1272,-140.1183"/>
<polygon fill="none" stroke="#000000" points="312.3764,-216.437 322.3613,-219.98 316.7651,-210.9836 312.3764,-216.437"/>
</g>
<!-- A1&#45;&gt;A3 -->
<g id="edge4" class="edge">
<title>A1&#45;&gt;A3</title>
<path fill="none" stroke="#000000" d="M402.3383,-185.9351C405.0687,-170.6144 407.8827,-154.8248 410.5214,-140.0187"/>
<polygon fill="none" stroke="#000000" points="398.8677,-185.4613 400.5588,-195.9203 405.7591,-186.6895 398.8677,-185.4613"/>
</g>
</g>
</svg>
