<?xml version="1.0" encoding="UTF-8" standalone="no"?>
<!DOCTYPE svg PUBLIC "-//W3C//DTD SVG 1.1//EN"
 "http://www.w3.org/Graphics/SVG/1.1/DTD/svg11.dtd">
<!-- Generated by graphviz version 2.40.1 (20161225.0304)
 -->
<!-- Title: G Pages: 1 -->
<svg width="111pt" height="278pt"
 viewBox="0.00 0.00 111.00 278.00" xmlns="http://www.w3.org/2000/svg" xmlns:xlink="http://www.w3.org/1999/xlink">
<g id="graph0" class="graph" transform="scale(1 1) rotate(0) translate(4 274)">
<title>G</title>
<polygon fill="#ffffff" stroke="transparent" points="-4,4 -4,-274 107,-274 107,4 -4,4"/>
<!-- A0 -->
<g id="node1" class="node">
<title>A0</title>
<polygon fill="none" stroke="#000000" points=".5,-238 .5,-270 103.5,-270 103.5,-238 .5,-238"/>
<text text-anchor="start" x="29.9175" y="-251" font-family="Helvetica,sans-Serif" font-size="10.00" fill="#000000">+MyClass</text>
<polygon fill="none" stroke="#000000" points=".5,-206 .5,-238 103.5,-238 103.5,-206 .5,-206"/>
<text text-anchor="start" x="17.002" y="-219" font-family="Helvetica,sans-Serif" font-size="10.00" fill="#000000">&#45;myString:string</text>
<polygon fill="none" stroke="#000000" points=".5,-174 .5,-206 103.5,-206 103.5,-174 .5,-174"/>
<text text-anchor="start" x="10.4635" y="-187" font-family="Helvetica,sans-Serif" font-size="10.00" fill="#000000">+GetString:string:v</text>
<polygon fill="none" stroke="#000000" points=".5,-154 .5,-174 103.5,-174 103.5,-154 .5,-154"/>
</g>
<!-- A1 -->
<g id="node2" class="node">
<title>A1</title>
<polygon fill="none" stroke="#000000" points="2.5,-72 2.5,-104 100.5,-104 100.5,-72 2.5,-72"/>
<text text-anchor="start" x="12.1955" y="-85" font-family="Helvetica,sans-Serif" font-size="10.00" fill="#000000">+MyDerivedClass</text>
<polygon fill="none" stroke="#000000" points="2.5,-52 2.5,-72 100.5,-72 100.5,-52 2.5,-52"/>
<polygon fill="none" stroke="#000000" points="2.5,-20 2.5,-52 100.5,-52 100.5,-20 2.5,-20"/>
<text text-anchor="start" x="13.853" y="-33" font-family="Helvetica,sans-Serif" font-size="10.00" fill="#000000">+GetString:string</text>
<polygon fill="none" stroke="#000000" points="2.5,0 2.5,-20 100.5,-20 100.5,0 2.5,0"/>
</g>
<!-- A0&#45;&gt;A1 -->
<g id="edge1" class="edge">
<title>A0&#45;&gt;A1</title>
<path fill="none" stroke="#000000" d="M51.5,-143.7381C51.5,-130.4565 51.5,-116.7336 51.5,-104.077"/>
<polygon fill="#000000" stroke="#000000" points="51.5,-153.7837 47.0001,-143.7837 51.5,-148.7837 51.5001,-143.7837 51.5001,-143.7837 51.5001,-143.7837 51.5,-148.7837 56.0001,-143.7838 51.5,-153.7837 51.5,-153.7837"/>
</g>
</g>
</svg>
