<?xml version="1.0" encoding="UTF-8" standalone="no"?>
<!DOCTYPE svg PUBLIC "-//W3C//DTD SVG 1.1//EN"
 "http://www.w3.org/Graphics/SVG/1.1/DTD/svg11.dtd">
<!-- Generated by graphviz version 2.40.1 (20161225.0304)
 -->
<!-- Title: G Pages: 1 -->
<svg width="255pt" height="488pt"
 viewBox="0.00 0.00 255.00 488.00" xmlns="http://www.w3.org/2000/svg" xmlns:xlink="http://www.w3.org/1999/xlink">
<g id="graph0" class="graph" transform="scale(1 1) rotate(0) translate(4 484)">
<title>G</title>
<polygon fill="#ffffff" stroke="transparent" points="-4,4 -4,-484 251,-484 251,4 -4,4"/>
<!-- A0 -->
<g id="node1" class="node">
<title>A0</title>
<polygon fill="none" stroke="#000000" points="107.5,-448 107.5,-480 193.5,-480 193.5,-448 107.5,-448"/>
<text text-anchor="start" x="117.3015" y="-461" font-family="Helvetica,sans-Serif" font-size="10.00" fill="#000000">+I:IDrawObject</text>
<polygon fill="none" stroke="#000000" points="107.5,-416 107.5,-448 193.5,-448 193.5,-416 107.5,-416"/>
<text text-anchor="start" x="128.564" y="-429" font-family="Helvetica,sans-Serif" font-size="10.00" fill="#000000">DrawMe()</text>
</g>
<!-- A1 -->
<g id="node2" class="node">
<title>A1</title>
<polygon fill="none" stroke="#000000" points=".5,-282 .5,-314 77.5,-314 77.5,-282 .5,-282"/>
<text text-anchor="start" x="23.298" y="-295" font-family="Helvetica,sans-Serif" font-size="10.00" fill="#000000">+Blood</text>
<polygon fill="none" stroke="#000000" points=".5,-262 .5,-282 77.5,-282 77.5,-262 .5,-262"/>
<polygon fill="none" stroke="#000000" points=".5,-230 .5,-262 77.5,-262 77.5,-230 .5,-230"/>
<text text-anchor="start" x="10.255" y="-243" font-family="Helvetica,sans-Serif" font-size="10.00" fill="#000000">+DrawMe():v</text>
</g>
<!-- A0&#45;&gt;A1 -->
<g id="edge1" class="edge">
<title>A0&#45;&gt;A1</title>
<path fill="none" stroke="#000000" d="M116.8714,-408.0697C106.5768,-395.04 95.5827,-380.2509 86.5,-366 76.0606,-349.6205 66.0369,-330.6891 57.8743,-314.1275"/>
<polygon fill="none" stroke="#000000" points="114.1856,-410.3152 123.1675,-415.9346 119.6503,-405.9406 114.1856,-410.3152"/>
</g>
<!-- A2 -->
<g id="node3" class="node">
<title>A2</title>
<polygon fill="none" stroke="#000000" points="95.5,-334 95.5,-366 205.5,-366 205.5,-334 95.5,-334"/>
<text text-anchor="start" x="128.404" y="-347" font-family="Helvetica,sans-Serif" font-size="10.00" fill="#000000">+A:Shape</text>
<polygon fill="none" stroke="#000000" points="95.5,-266 95.5,-334 205.5,-334 205.5,-266 95.5,-266"/>
<text text-anchor="start" x="126.46" y="-315" font-family="Helvetica,sans-Serif" font-size="10.00" fill="#000000">+PI:double</text>
<text text-anchor="start" x="128.684" y="-303" font-family="Helvetica,sans-Serif" font-size="10.00" fill="#000000">=x:double</text>
<text text-anchor="start" x="128.684" y="-291" font-family="Helvetica,sans-Serif" font-size="10.00" fill="#000000">=y:double</text>
<text text-anchor="start" x="129.9445" y="-279" font-family="Helvetica,sans-Serif" font-size="10.00" fill="#000000">&#45;myInt:int</text>
<polygon fill="none" stroke="#000000" points="95.5,-222 95.5,-266 205.5,-266 205.5,-222 95.5,-222"/>
<text text-anchor="start" x="113.4075" y="-247" font-family="Helvetica,sans-Serif" font-size="10.00" fill="#000000">+Area():double:v</text>
<text text-anchor="start" x="121.4755" y="-235" font-family="Helvetica,sans-Serif" font-size="10.00" fill="#000000">+DrawMe():a</text>
<polygon fill="none" stroke="#000000" points="95.5,-178 95.5,-222 205.5,-222 205.5,-178 95.5,-178"/>
<text text-anchor="start" x="144.2515" y="-203" font-family="Helvetica,sans-Serif" font-size="10.00" fill="#000000">+()</text>
<text text-anchor="start" x="105.069" y="-191" font-family="Helvetica,sans-Serif" font-size="10.00" fill="#000000">+(x:double,y:double)</text>
</g>
<!-- A0&#45;&gt;A2 -->
<g id="edge2" class="edge">
<title>A0&#45;&gt;A2</title>
<path fill="none" stroke="#000000" d="M150.5,-405.6019C150.5,-393.5919 150.5,-380.0161 150.5,-366.2352"/>
<polygon fill="none" stroke="#000000" points="147.0001,-405.7189 150.5,-415.7189 154.0001,-405.7189 147.0001,-405.7189"/>
</g>
<!-- A3 -->
<g id="node4" class="node">
<title>A3</title>
<polygon fill="none" stroke="#000000" points="136.5,-96 136.5,-128 247.5,-128 247.5,-96 136.5,-96"/>
<text text-anchor="start" x="176.308" y="-109" font-family="Helvetica,sans-Serif" font-size="10.00" fill="#000000">+Circle</text>
<polygon fill="none" stroke="#000000" points="136.5,-76 136.5,-96 247.5,-96 247.5,-76 136.5,-76"/>
<polygon fill="none" stroke="#000000" points="136.5,-32 136.5,-76 247.5,-76 247.5,-32 136.5,-32"/>
<text text-anchor="start" x="154.628" y="-57" font-family="Helvetica,sans-Serif" font-size="10.00" fill="#000000">+Area():double:o</text>
<text text-anchor="start" x="162.9755" y="-45" font-family="Helvetica,sans-Serif" font-size="10.00" fill="#000000">+DrawMe():o</text>
<polygon fill="none" stroke="#000000" points="136.5,0 136.5,-32 247.5,-32 247.5,0 136.5,0"/>
<text text-anchor="start" x="146.3" y="-13" font-family="Helvetica,sans-Serif" font-size="10.00" fill="#000000">+(r:double):base(r,0)</text>
</g>
<!-- A0&#45;&gt;A3 -->
<g id="edge4" class="edge">
<title>A0&#45;&gt;A3</title>
<path fill="none" stroke="#000000" d="M190.1331,-408.0729C200.0276,-395.6069 209.295,-381.1287 214.5,-366 241.5716,-287.3151 226.3849,-190.5083 210.8402,-128.0518"/>
<polygon fill="none" stroke="#000000" points="187.2772,-406.0333 183.5767,-415.9609 192.6605,-410.5078 187.2772,-406.0333"/>
</g>
<!-- A2&#45;&gt;A3 -->
<g id="edge3" class="edge">
<title>A2&#45;&gt;A3</title>
<path fill="none" stroke="#000000" stroke-dasharray="5,2" d="M171.0224,-167.8863C173.6925,-154.3402 176.3622,-140.7967 178.8501,-128.175"/>
<polygon fill="#000000" stroke="#000000" points="169.0806,-177.7373 166.5996,-167.0558 170.0476,-172.8317 171.0146,-167.9261 171.0146,-167.9261 171.0146,-167.9261 170.0476,-172.8317 175.4297,-168.7964 169.0806,-177.7373 169.0806,-177.7373"/>
</g>
</g>
</svg>
