<?xml version="1.0" encoding="UTF-8" standalone="no"?>
<!DOCTYPE svg PUBLIC "-//W3C//DTD SVG 1.1//EN"
 "http://www.w3.org/Graphics/SVG/1.1/DTD/svg11.dtd">
<!-- Generated by graphviz version 2.40.1 (20161225.0304)
 -->
<!-- Title: G Pages: 1 -->
<svg width="1457pt" height="556pt"
 viewBox="0.00 0.00 1457.16 556.00" xmlns="http://www.w3.org/2000/svg" xmlns:xlink="http://www.w3.org/1999/xlink">
<g id="graph0" class="graph" transform="scale(1 1) rotate(0) translate(4 552)">
<title>G</title>
<polygon fill="#ffffff" stroke="transparent" points="-4,4 -4,-552 1453.1599,-552 1453.1599,4 -4,4"/>
<!-- A0 -->
<g id="node1" class="node">
<title>A0</title>
<polygon fill="none" stroke="#000000" points="509.6599,-304 509.6599,-336 858.6599,-336 858.6599,-304 509.6599,-304"/>
<text text-anchor="start" x="664.5729" y="-317" font-family="Helvetica,sans-Serif" font-size="10.00" fill="#000000">+NavBar</text>
<polygon fill="none" stroke="#000000" points="509.6599,-248 509.6599,-304 858.6599,-304 858.6599,-248 509.6599,-248"/>
<text text-anchor="start" x="655.1209" y="-285" font-family="Helvetica,sans-Serif" font-size="10.00" fill="#000000">+quote:string</text>
<text text-anchor="start" x="585.9394" y="-273" font-family="Helvetica,sans-Serif" font-size="10.00" fill="#000000">+deadlines:SortedList&lt;DateTime, Deadline&gt;</text>
<text text-anchor="start" x="646.7914" y="-261" font-family="Helvetica,sans-Serif" font-size="10.00" fill="#000000">+toDos:ToDoList</text>
<polygon fill="none" stroke="#000000" points="509.6599,-180 509.6599,-248 858.6599,-248 858.6599,-180 509.6599,-180"/>
<text text-anchor="start" x="654.7114" y="-229" font-family="Helvetica,sans-Serif" font-size="10.00" fill="#000000">(quote:string)</text>
<text text-anchor="start" x="556.6314" y="-217" font-family="Helvetica,sans-Serif" font-size="10.00" fill="#000000">(quote:string, deadlines:SortedList&lt;DateTime, Deadline&gt;)</text>
<text text-anchor="start" x="617.4834" y="-205" font-family="Helvetica,sans-Serif" font-size="10.00" fill="#000000">(quote:string, toDos:ToDoList)</text>
<text text-anchor="start" x="519.4034" y="-193" font-family="Helvetica,sans-Serif" font-size="10.00" fill="#000000">(quote:string, deadlines:SortedList&lt;DateTime, Deadline&gt;, toDos:ToDoList)</text>
</g>
<!-- A1 -->
<g id="node2" class="node">
<title>A1</title>
<polygon fill="none" stroke="#000000" points="35.6599,-76 35.6599,-108 137.6599,-108 137.6599,-76 35.6599,-76"/>
<text text-anchor="start" x="66.5084" y="-89" font-family="Helvetica,sans-Serif" font-size="10.00" fill="#000000">+Agenda</text>
<polygon fill="none" stroke="#000000" points="35.6599,-56 35.6599,-76 137.6599,-76 137.6599,-56 35.6599,-56"/>
<polygon fill="none" stroke="#000000" points="35.6599,-12 35.6599,-56 137.6599,-56 137.6599,-12 35.6599,-12"/>
<text text-anchor="start" x="45.4019" y="-37" font-family="Helvetica,sans-Serif" font-size="10.00" fill="#000000">+AddAssignment()</text>
<text text-anchor="start" x="51.7919" y="-25" font-family="Helvetica,sans-Serif" font-size="10.00" fill="#000000">+AddDeadline()</text>
</g>
<!-- A0&#45;&gt;A1 -->
<g id="edge11" class="edge">
<title>A0&#45;&gt;A1</title>
<path fill="none" stroke="#000000" d="M515.5214,-176.068C510.1991,-173.962 504.9031,-171.933 499.6599,-170 482.4288,-163.6475 244.7932,-101.3189 137.999,-73.4024"/>
<polygon fill="#000000" stroke="#000000" points="525.1243,-179.9376 514.1671,-180.3738 520.4867,-178.0688 515.849,-176.2 515.849,-176.2 515.849,-176.2 520.4867,-178.0688 517.531,-172.0261 525.1243,-179.9376 525.1243,-179.9376"/>
</g>
<!-- A2 -->
<g id="node3" class="node">
<title>A2</title>
<polygon fill="none" stroke="#000000" points="326.6599,-88 326.6599,-120 421.6599,-120 421.6599,-88 326.6599,-88"/>
<text text-anchor="start" x="336.5159" y="-101" font-family="Helvetica,sans-Serif" font-size="10.00" fill="#000000">+FinanceTracker</text>
<polygon fill="none" stroke="#000000" points="326.6599,-68 326.6599,-88 421.6599,-88 421.6599,-68 326.6599,-68"/>
<polygon fill="none" stroke="#000000" points="326.6599,0 326.6599,-68 421.6599,-68 421.6599,0 326.6599,0"/>
<text text-anchor="start" x="340.9554" y="-49" font-family="Helvetica,sans-Serif" font-size="10.00" fill="#000000">+AddAccount()</text>
<text text-anchor="start" x="343.1759" y="-37" font-family="Helvetica,sans-Serif" font-size="10.00" fill="#000000">+AddBudget()</text>
<text text-anchor="start" x="339.2909" y="-25" font-family="Helvetica,sans-Serif" font-size="10.00" fill="#000000">+AddPayment()</text>
<text text-anchor="start" x="339.2914" y="-13" font-family="Helvetica,sans-Serif" font-size="10.00" fill="#000000">+AddDueDate()</text>
</g>
<!-- A0&#45;&gt;A2 -->
<g id="edge12" class="edge">
<title>A0&#45;&gt;A2</title>
<path fill="none" stroke="#000000" d="M552.4999,-174.2268C506.0241,-144.5423 456.6187,-112.9866 421.5399,-90.5814"/>
<polygon fill="#000000" stroke="#000000" points="561.1397,-179.7452 550.2898,-178.1547 556.9259,-177.0537 552.7121,-174.3623 552.7121,-174.3623 552.7121,-174.3623 556.9259,-177.0537 555.1343,-170.5698 561.1397,-179.7452 561.1397,-179.7452"/>
</g>
<!-- A3 -->
<g id="node4" class="node">
<title>A3</title>
<polygon fill="none" stroke="#000000" points="749.6599,-76 749.6599,-108 869.6599,-108 869.6599,-76 749.6599,-76"/>
<text text-anchor="start" x="778.1304" y="-89" font-family="Helvetica,sans-Serif" font-size="10.00" fill="#000000">+HabitTracker</text>
<polygon fill="none" stroke="#000000" points="749.6599,-56 749.6599,-76 869.6599,-76 869.6599,-56 749.6599,-56"/>
<polygon fill="none" stroke="#000000" points="749.6599,-12 749.6599,-56 869.6599,-56 869.6599,-12 749.6599,-12"/>
<text text-anchor="start" x="782.8504" y="-37" font-family="Helvetica,sans-Serif" font-size="10.00" fill="#000000">+AddHabit()</text>
<text text-anchor="start" x="759.2449" y="-25" font-family="Helvetica,sans-Serif" font-size="10.00" fill="#000000">+DailyHabitComplete()</text>
</g>
<!-- A0&#45;&gt;A3 -->
<g id="edge13" class="edge">
<title>A0&#45;&gt;A3</title>
<path fill="none" stroke="#000000" d="M738.9146,-171.1712C752.6981,-149.5114 766.9838,-127.0625 779.0784,-108.0566"/>
<polygon fill="#000000" stroke="#000000" points="733.4585,-179.7452 735.0308,-168.8926 736.1429,-175.5268 738.8273,-171.3085 738.8273,-171.3085 738.8273,-171.3085 736.1429,-175.5268 742.6238,-173.7245 733.4585,-179.7452 733.4585,-179.7452"/>
</g>
<!-- A4 -->
<g id="node5" class="node">
<title>A4</title>
<polygon fill="none" stroke="#000000" points="1046.6599,-76 1046.6599,-108 1151.6599,-108 1151.6599,-76 1046.6599,-76"/>
<text text-anchor="start" x="1068.1809" y="-89" font-family="Helvetica,sans-Serif" font-size="10.00" fill="#000000">+MealPlanner</text>
<polygon fill="none" stroke="#000000" points="1046.6599,-56 1046.6599,-76 1151.6599,-76 1151.6599,-56 1046.6599,-56"/>
<polygon fill="none" stroke="#000000" points="1046.6599,-12 1046.6599,-56 1151.6599,-56 1151.6599,-12 1046.6599,-12"/>
<text text-anchor="start" x="1073.1849" y="-37" font-family="Helvetica,sans-Serif" font-size="10.00" fill="#000000">+AddMeal()</text>
<text text-anchor="start" x="1056.5174" y="-25" font-family="Helvetica,sans-Serif" font-size="10.00" fill="#000000">+AddToGroceries()</text>
</g>
<!-- A0&#45;&gt;A4 -->
<g id="edge14" class="edge">
<title>A0&#45;&gt;A4</title>
<path fill="none" stroke="#000000" d="M856.2169,-175.4621C860.0666,-173.6241 863.885,-171.8015 867.6599,-170 928.7942,-140.8252 999.0659,-107.3746 1045.8944,-85.0954"/>
<polygon fill="#000000" stroke="#000000" points="847.1831,-179.7757 854.2681,-171.4059 851.6951,-177.6212 856.2071,-175.4667 856.2071,-175.4667 856.2071,-175.4667 851.6951,-177.6212 858.1462,-179.5275 847.1831,-179.7757 847.1831,-179.7757"/>
</g>
<!-- A5 -->
<g id="node6" class="node">
<title>A5</title>
<polygon fill="none" stroke="#000000" points="606.6599,-510 606.6599,-542 760.6599,-542 760.6599,-510 606.6599,-510"/>
<text text-anchor="start" x="660.7389" y="-523" font-family="Helvetica,sans-Serif" font-size="10.00" fill="#000000">+ToDoList</text>
<polygon fill="none" stroke="#000000" points="606.6599,-478 606.6599,-510 760.6599,-510 760.6599,-478 606.6599,-478"/>
<text text-anchor="start" x="645.8724" y="-491" font-family="Helvetica,sans-Serif" font-size="10.00" fill="#000000">toDo:List&lt;string&gt;</text>
<polygon fill="none" stroke="#000000" points="606.6599,-446 606.6599,-478 760.6599,-478 760.6599,-446 606.6599,-446"/>
<text text-anchor="start" x="657.6839" y="-459" font-family="Helvetica,sans-Serif" font-size="10.00" fill="#000000">+AddTask()</text>
<polygon fill="none" stroke="#000000" points="606.6599,-402 606.6599,-446 760.6599,-446 760.6599,-402 606.6599,-402"/>
<text text-anchor="start" x="680.3309" y="-427" font-family="Helvetica,sans-Serif" font-size="10.00" fill="#000000">()</text>
<text text-anchor="start" x="616.4334" y="-415" font-family="Helvetica,sans-Serif" font-size="10.00" fill="#000000">(task:string)(toDo:List&lt;string&gt;)</text>
</g>
<!-- A5&#45;&gt;A0 -->
<g id="edge1" class="edge">
<title>A5&#45;&gt;A0</title>
<path fill="none" stroke="#000000" d="M683.6599,-391.8983C683.6599,-373.6099 683.6599,-354.2005 683.6599,-336.0016"/>
<polygon fill="#000000" stroke="#000000" points="683.6599,-401.9284 679.16,-391.9284 683.66,-396.9284 683.66,-391.9284 683.66,-391.9284 683.66,-391.9284 683.66,-396.9284 688.16,-391.9284 683.6599,-401.9284 683.6599,-401.9284"/>
</g>
<!-- A6 -->
<g id="node7" class="node">
<title>A6</title>
<polygon fill="none" stroke="#000000" points="33.6599,-302 33.6599,-334 140.6599,-334 140.6599,-302 33.6599,-302"/>
<text text-anchor="start" x="58.1244" y="-315" font-family="Helvetica,sans-Serif" font-size="10.00" fill="#000000">+Assignment</text>
<polygon fill="none" stroke="#000000" points="33.6599,-258 33.6599,-302 140.6599,-302 140.6599,-258 33.6599,-258"/>
<text text-anchor="start" x="59.3804" y="-283" font-family="Helvetica,sans-Serif" font-size="10.00" fill="#000000">&#45;name:string</text>
<text text-anchor="start" x="43.5434" y="-271" font-family="Helvetica,sans-Serif" font-size="10.00" fill="#000000">&#45;dueDate:DateTime</text>
<polygon fill="none" stroke="#000000" points="33.6599,-226 33.6599,-258 140.6599,-258 140.6599,-226 33.6599,-226"/>
<text text-anchor="start" x="43.6779" y="-239" font-family="Helvetica,sans-Serif" font-size="10.00" fill="#000000">+ChangeDueDate()</text>
<polygon fill="none" stroke="#000000" points="33.6599,-182 33.6599,-226 140.6599,-226 140.6599,-182 33.6599,-182"/>
<text text-anchor="start" x="57.9909" y="-207" font-family="Helvetica,sans-Serif" font-size="10.00" fill="#000000">(name:string,</text>
<text text-anchor="start" x="43.5434" y="-195" font-family="Helvetica,sans-Serif" font-size="10.00" fill="#000000">dueDate:DateTime)</text>
</g>
<!-- A6&#45;&gt;A1 -->
<g id="edge3" class="edge">
<title>A6&#45;&gt;A1</title>
<path fill="none" stroke="#000000" d="M86.6599,-171.4931C86.6599,-149.7795 86.6599,-127.2512 86.6599,-108.1766"/>
<polygon fill="#000000" stroke="#000000" points="86.6599,-181.7313 82.16,-171.7312 86.66,-176.7313 86.66,-171.7313 86.66,-171.7313 86.66,-171.7313 86.66,-176.7313 91.16,-171.7313 86.6599,-181.7313 86.6599,-181.7313"/>
</g>
<!-- A7 -->
<g id="node8" class="node">
<title>A7</title>
<polygon fill="none" stroke="#000000" points="216.6599,-516 216.6599,-548 323.6599,-548 323.6599,-516 216.6599,-516"/>
<text text-anchor="start" x="247.5144" y="-529" font-family="Helvetica,sans-Serif" font-size="10.00" fill="#000000">+Deadline</text>
<polygon fill="none" stroke="#000000" points="216.6599,-472 216.6599,-516 323.6599,-516 323.6599,-472 216.6599,-472"/>
<text text-anchor="start" x="242.3804" y="-497" font-family="Helvetica,sans-Serif" font-size="10.00" fill="#000000">&#45;name:string</text>
<text text-anchor="start" x="226.5434" y="-485" font-family="Helvetica,sans-Serif" font-size="10.00" fill="#000000">&#45;dueDate:DateTime</text>
<polygon fill="none" stroke="#000000" points="216.6599,-440 216.6599,-472 323.6599,-472 323.6599,-440 216.6599,-440"/>
<text text-anchor="start" x="226.6779" y="-453" font-family="Helvetica,sans-Serif" font-size="10.00" fill="#000000">+ChangeDueDate()</text>
<polygon fill="none" stroke="#000000" points="216.6599,-396 216.6599,-440 323.6599,-440 323.6599,-396 216.6599,-396"/>
<text text-anchor="start" x="240.9909" y="-421" font-family="Helvetica,sans-Serif" font-size="10.00" fill="#000000">(name:string,</text>
<text text-anchor="start" x="226.5434" y="-409" font-family="Helvetica,sans-Serif" font-size="10.00" fill="#000000">dueDate:DateTime)</text>
</g>
<!-- A7&#45;&gt;A0 -->
<g id="edge2" class="edge">
<title>A7&#45;&gt;A0</title>
<path fill="none" stroke="#000000" d="M332.2927,-439.6246C385.2604,-412.2452 463.3471,-371.8815 532.4637,-336.1546"/>
<polygon fill="#000000" stroke="#000000" points="323.3588,-444.2426 330.1758,-435.6532 327.8005,-441.9467 332.2422,-439.6507 332.2422,-439.6507 332.2422,-439.6507 327.8005,-441.9467 334.3085,-443.6482 323.3588,-444.2426 323.3588,-444.2426"/>
</g>
<!-- A7&#45;&gt;A1 -->
<g id="edge4" class="edge">
<title>A7&#45;&gt;A1</title>
<path fill="none" stroke="#000000" d="M206.0829,-459.0709C147.2488,-443.3671 63.1126,-410.5342 23.6599,-346 -17.1404,-279.2614 3.5458,-245.5919 23.6599,-170 29.4039,-148.4135 40.4966,-126.6524 51.7938,-108.2486"/>
<polygon fill="#000000" stroke="#000000" points="216.0262,-461.6271 205.2206,-463.4954 211.1836,-460.3822 206.3411,-459.1372 206.3411,-459.1372 206.3411,-459.1372 211.1836,-460.3822 207.4616,-454.7789 216.0262,-461.6271 216.0262,-461.6271"/>
</g>
<!-- A8 -->
<g id="node9" class="node">
<title>A8</title>
<polygon fill="none" stroke="#000000" points="158.6599,-284 158.6599,-316 236.6599,-316 236.6599,-284 158.6599,-284"/>
<text text-anchor="start" x="176.6779" y="-297" font-family="Helvetica,sans-Serif" font-size="10.00" fill="#000000">+Account</text>
<polygon fill="none" stroke="#000000" points="158.6599,-252 158.6599,-284 236.6599,-284 236.6599,-252 158.6599,-252"/>
<text text-anchor="start" x="169.8804" y="-265" font-family="Helvetica,sans-Serif" font-size="10.00" fill="#000000">&#45;name:string</text>
<polygon fill="none" stroke="#000000" points="158.6599,-232 158.6599,-252 236.6599,-252 236.6599,-232 158.6599,-232"/>
<polygon fill="none" stroke="#000000" points="158.6599,-200 158.6599,-232 236.6599,-232 236.6599,-200 158.6599,-200"/>
<text text-anchor="start" x="168.2159" y="-213" font-family="Helvetica,sans-Serif" font-size="10.00" fill="#000000">(name:string)</text>
</g>
<!-- A8&#45;&gt;A2 -->
<g id="edge5" class="edge">
<title>A8&#45;&gt;A2</title>
<path fill="none" stroke="#000000" d="M230.7813,-191.0553C235.4035,-183.6942 240.3896,-176.5158 245.6599,-170 268.8776,-141.2956 300.2482,-114.1997 326.1217,-94.0826"/>
<polygon fill="#000000" stroke="#000000" points="225.5272,-199.7517 226.8468,-188.8655 228.1128,-195.4722 230.6984,-191.1926 230.6984,-191.1926 230.6984,-191.1926 228.1128,-195.4722 234.55,-193.5196 225.5272,-199.7517 225.5272,-199.7517"/>
</g>
<!-- A9 -->
<g id="node10" class="node">
<title>A9</title>
<polygon fill="none" stroke="#000000" points="254.6599,-284 254.6599,-316 366.6599,-316 366.6599,-284 254.6599,-284"/>
<text text-anchor="start" x="291.8984" y="-297" font-family="Helvetica,sans-Serif" font-size="10.00" fill="#000000">+Budget</text>
<polygon fill="none" stroke="#000000" points="254.6599,-252 254.6599,-284 366.6599,-284 366.6599,-252 254.6599,-252"/>
<text text-anchor="start" x="282.3244" y="-265" font-family="Helvetica,sans-Serif" font-size="10.00" fill="#000000">&#45;maxAmount</text>
<polygon fill="none" stroke="#000000" points="254.6599,-232 254.6599,-252 366.6599,-252 366.6599,-232 254.6599,-232"/>
<polygon fill="none" stroke="#000000" points="254.6599,-200 254.6599,-232 366.6599,-232 366.6599,-200 254.6599,-200"/>
<text text-anchor="start" x="264.2634" y="-213" font-family="Helvetica,sans-Serif" font-size="10.00" fill="#000000">(maxAmount:double)</text>
</g>
<!-- A9&#45;&gt;A2 -->
<g id="edge6" class="edge">
<title>A9&#45;&gt;A2</title>
<path fill="none" stroke="#000000" d="M332.1901,-190.3337C339.4399,-167.5488 347.4752,-142.2949 354.5274,-120.1309"/>
<polygon fill="#000000" stroke="#000000" points="329.1363,-199.9313 327.8803,-189.0376 330.6524,-195.1667 332.1684,-190.4021 332.1684,-190.4021 332.1684,-190.4021 330.6524,-195.1667 336.4566,-191.7665 329.1363,-199.9313 329.1363,-199.9313"/>
</g>
<!-- A10 -->
<g id="node11" class="node">
<title>A10</title>
<polygon fill="none" stroke="#000000" points="384.6599,-296 384.6599,-328 490.6599,-328 490.6599,-296 384.6599,-296"/>
<text text-anchor="start" x="415.0134" y="-309" font-family="Helvetica,sans-Serif" font-size="10.00" fill="#000000">+Payment</text>
<polygon fill="none" stroke="#000000" points="384.6599,-252 384.6599,-296 490.6599,-296 490.6599,-252 384.6599,-252"/>
<text text-anchor="start" x="409.8804" y="-277" font-family="Helvetica,sans-Serif" font-size="10.00" fill="#000000">&#45;name:string</text>
<text text-anchor="start" x="394.3229" y="-265" font-family="Helvetica,sans-Serif" font-size="10.00" fill="#000000">&#45;payDate:DateTime</text>
<polygon fill="none" stroke="#000000" points="384.6599,-232 384.6599,-252 490.6599,-252 490.6599,-232 384.6599,-232"/>
<polygon fill="none" stroke="#000000" points="384.6599,-188 384.6599,-232 490.6599,-232 490.6599,-188 384.6599,-188"/>
<text text-anchor="start" x="408.4909" y="-213" font-family="Helvetica,sans-Serif" font-size="10.00" fill="#000000">(name:string,</text>
<text text-anchor="start" x="394.3229" y="-201" font-family="Helvetica,sans-Serif" font-size="10.00" fill="#000000">payDate:DateTime)</text>
</g>
<!-- A10&#45;&gt;A2 -->
<g id="edge7" class="edge">
<title>A10&#45;&gt;A2</title>
<path fill="none" stroke="#000000" d="M411.8652,-178.1976C405.6035,-158.8253 399.0121,-138.4332 393.1004,-120.1441"/>
<polygon fill="#000000" stroke="#000000" points="415.0059,-187.914 407.6483,-179.7828 413.468,-183.1563 411.9301,-178.3987 411.9301,-178.3987 411.9301,-178.3987 413.468,-183.1563 416.212,-177.0146 415.0059,-187.914 415.0059,-187.914"/>
</g>
<!-- A11 -->
<g id="node12" class="node">
<title>A11</title>
<polygon fill="none" stroke="#000000" points="876.6599,-290 876.6599,-322 996.6599,-322 996.6599,-290 876.6599,-290"/>
<text text-anchor="start" x="922.0729" y="-303" font-family="Helvetica,sans-Serif" font-size="10.00" fill="#000000">+Habit</text>
<polygon fill="none" stroke="#000000" points="876.6599,-258 876.6599,-290 996.6599,-290 996.6599,-258 876.6599,-258"/>
<text text-anchor="start" x="908.8804" y="-271" font-family="Helvetica,sans-Serif" font-size="10.00" fill="#000000">&#45;name:string</text>
<polygon fill="none" stroke="#000000" points="876.6599,-226 876.6599,-258 996.6599,-258 996.6599,-226 876.6599,-226"/>
<text text-anchor="start" x="886.2449" y="-239" font-family="Helvetica,sans-Serif" font-size="10.00" fill="#000000">+DailyHabitComplete()</text>
<polygon fill="none" stroke="#000000" points="876.6599,-194 876.6599,-226 996.6599,-226 996.6599,-194 876.6599,-194"/>
<text text-anchor="start" x="907.2159" y="-207" font-family="Helvetica,sans-Serif" font-size="10.00" fill="#000000">(name:string)</text>
</g>
<!-- A11&#45;&gt;A3 -->
<g id="edge8" class="edge">
<title>A11&#45;&gt;A3</title>
<path fill="none" stroke="#000000" d="M890.0707,-185.3648C873.5532,-159.6132 855.3892,-131.2945 840.5104,-108.0976"/>
<polygon fill="#000000" stroke="#000000" points="895.6021,-193.9885 886.4152,-188.0007 892.9025,-189.7798 890.203,-185.5712 890.203,-185.5712 890.203,-185.5712 892.9025,-189.7798 893.9908,-183.1416 895.6021,-193.9885 895.6021,-193.9885"/>
</g>
<!-- A12 -->
<g id="node13" class="node">
<title>A12</title>
<polygon fill="none" stroke="#000000" points="1200.6599,-314 1200.6599,-346 1449.6599,-346 1449.6599,-314 1200.6599,-314"/>
<text text-anchor="start" x="1311.4074" y="-327" font-family="Helvetica,sans-Serif" font-size="10.00" fill="#000000">+Meal</text>
<polygon fill="none" stroke="#000000" points="1200.6599,-258 1200.6599,-314 1449.6599,-314 1449.6599,-258 1200.6599,-258"/>
<text text-anchor="start" x="1297.3804" y="-295" font-family="Helvetica,sans-Serif" font-size="10.00" fill="#000000">&#45;name:string</text>
<text text-anchor="start" x="1270.9814" y="-283" font-family="Helvetica,sans-Serif" font-size="10.00" fill="#000000">&#45;ingredients:List&lt;String&gt;</text>
<text text-anchor="start" x="1294.3314" y="-271" font-family="Helvetica,sans-Serif" font-size="10.00" fill="#000000">&#45;recipe(string)</text>
<polygon fill="none" stroke="#000000" points="1200.6599,-226 1200.6599,-258 1449.6599,-258 1449.6599,-226 1200.6599,-226"/>
<text text-anchor="start" x="1267.2359" y="-239" font-family="Helvetica,sans-Serif" font-size="10.00" fill="#000000">+AddRecipe(recipe:string)</text>
<polygon fill="none" stroke="#000000" points="1200.6599,-170 1200.6599,-226 1449.6599,-226 1449.6599,-170 1200.6599,-170"/>
<text text-anchor="start" x="1295.9909" y="-207" font-family="Helvetica,sans-Serif" font-size="10.00" fill="#000000">(name:string,</text>
<text text-anchor="start" x="1270.9814" y="-195" font-family="Helvetica,sans-Serif" font-size="10.00" fill="#000000">ingredients:List&lt;String&gt;)</text>
<text text-anchor="start" x="1210.4194" y="-183" font-family="Helvetica,sans-Serif" font-size="10.00" fill="#000000">(name:string, ingredients:List&lt;String&gt;, recipe:string)</text>
</g>
<!-- A12&#45;&gt;A4 -->
<g id="edge9" class="edge">
<title>A12&#45;&gt;A4</title>
<path fill="none" stroke="#000000" d="M1216.2287,-163.0027C1193.6014,-143.1788 1170.7294,-123.1405 1151.2498,-106.0743"/>
<polygon fill="#000000" stroke="#000000" points="1223.8876,-169.7128 1213.4006,-166.5077 1220.1268,-166.4179 1216.366,-163.123 1216.366,-163.123 1216.366,-163.123 1220.1268,-166.4179 1219.3314,-159.7382 1223.8876,-169.7128 1223.8876,-169.7128"/>
</g>
<!-- A13 -->
<g id="node14" class="node">
<title>A13</title>
<polygon fill="none" stroke="#000000" points="1015.6599,-308 1015.6599,-340 1182.6599,-340 1182.6599,-308 1015.6599,-308"/>
<text text-anchor="start" x="1070.6844" y="-321" font-family="Helvetica,sans-Serif" font-size="10.00" fill="#000000">+GroceryList</text>
<polygon fill="none" stroke="#000000" points="1015.6599,-276 1015.6599,-308 1182.6599,-308 1182.6599,-276 1015.6599,-276"/>
<text text-anchor="start" x="1031.6484" y="-289" font-family="Helvetica,sans-Serif" font-size="10.00" fill="#000000">items:SortedList&lt;string,string&gt;</text>
<polygon fill="none" stroke="#000000" points="1015.6599,-244 1015.6599,-276 1182.6599,-276 1182.6599,-244 1015.6599,-244"/>
<text text-anchor="start" x="1025.4004" y="-257" font-family="Helvetica,sans-Serif" font-size="10.00" fill="#000000">+AddItem(type:string, item:string)</text>
<polygon fill="none" stroke="#000000" points="1015.6599,-176 1015.6599,-244 1182.6599,-244 1182.6599,-176 1015.6599,-176"/>
<text text-anchor="start" x="1095.8309" y="-225" font-family="Helvetica,sans-Serif" font-size="10.00" fill="#000000">()</text>
<text text-anchor="start" x="1073.0454" y="-213" font-family="Helvetica,sans-Serif" font-size="10.00" fill="#000000">(type:string,</text>
<text text-anchor="start" x="1074.4404" y="-201" font-family="Helvetica,sans-Serif" font-size="10.00" fill="#000000">item:string)</text>
<text text-anchor="start" x="1026.9299" y="-189" font-family="Helvetica,sans-Serif" font-size="10.00" fill="#000000">(items:SortedList&lt;string, string&gt;)</text>
</g>
<!-- A13&#45;&gt;A4 -->
<g id="edge10" class="edge">
<title>A13&#45;&gt;A4</title>
<path fill="none" stroke="#000000" d="M1098.6599,-165.6907C1098.6599,-145.7509 1098.6599,-125.4475 1098.6599,-108.0359"/>
<polygon fill="#000000" stroke="#000000" points="1098.6599,-175.7503 1094.16,-165.7503 1098.66,-170.7503 1098.66,-165.7503 1098.66,-165.7503 1098.66,-165.7503 1098.66,-170.7503 1103.16,-165.7504 1098.6599,-175.7503 1098.6599,-175.7503"/>
</g>
</g>
</svg>
