<?xml version="1.0" encoding="UTF-8" standalone="no"?>
<!DOCTYPE svg PUBLIC "-//W3C//DTD SVG 1.1//EN"
 "http://www.w3.org/Graphics/SVG/1.1/DTD/svg11.dtd">
<!-- Generated by graphviz version 2.40.1 (20161225.0304)
 -->
<!-- Title: G Pages: 1 -->
<svg width="1139pt" height="842pt"
 viewBox="0.00 0.00 1139.00 842.00" xmlns="http://www.w3.org/2000/svg" xmlns:xlink="http://www.w3.org/1999/xlink">
<g id="graph0" class="graph" transform="scale(1 1) rotate(0) translate(4 838)">
<title>G</title>
<polygon fill="#ffffff" stroke="transparent" points="-4,4 -4,-838 1135,-838 1135,4 -4,4"/>
<!-- A0 -->
<g id="node1" class="node">
<title>A0</title>
<polygon fill="none" stroke="#000000" points="232,-802 232,-834 391,-834 391,-802 232,-802"/>
<text text-anchor="start" x="291.0735" y="-815" font-family="Helvetica,sans-Serif" font-size="10.00" fill="#000000">+A:Event</text>
<polygon fill="none" stroke="#000000" points="232,-734 232,-802 391,-802 391,-734 232,-734"/>
<text text-anchor="start" x="288.16" y="-783" font-family="Helvetica,sans-Serif" font-size="10.00" fill="#000000">&#45;date:Date</text>
<text text-anchor="start" x="267.884" y="-771" font-family="Helvetica,sans-Serif" font-size="10.00" fill="#000000">&#45;deadline:DateTime</text>
<text text-anchor="start" x="271.213" y="-759" font-family="Helvetica,sans-Serif" font-size="10.00" fill="#000000">&#45;hasDeadline:bool</text>
<text text-anchor="start" x="275.6575" y="-747" font-family="Helvetica,sans-Serif" font-size="10.00" fill="#000000">&#45;eventInfo:string</text>
<polygon fill="none" stroke="#000000" points="232,-702 232,-734 391,-734 391,-702 232,-702"/>
<text text-anchor="start" x="284.1305" y="-715" font-family="Helvetica,sans-Serif" font-size="10.00" fill="#000000">+EventInfo()</text>
<polygon fill="none" stroke="#000000" points="232,-646 232,-702 391,-702 391,-646 232,-646"/>
<text text-anchor="start" x="308.171" y="-683" font-family="Helvetica,sans-Serif" font-size="10.00" fill="#000000">()</text>
<text text-anchor="start" x="286.4955" y="-671" font-family="Helvetica,sans-Serif" font-size="10.00" fill="#000000">(date:Date)</text>
<text text-anchor="start" x="241.765" y="-659" font-family="Helvetica,sans-Serif" font-size="10.00" fill="#000000">(date:Date, deadline:DateTime)</text>
</g>
<!-- A7 -->
<g id="node8" class="node">
<title>A7</title>
<polygon fill="none" stroke="#000000" points="258,-296 258,-328 365,-328 365,-296 258,-296"/>
<text text-anchor="start" x="282.4645" y="-309" font-family="Helvetica,sans-Serif" font-size="10.00" fill="#000000">+Assignment</text>
<polygon fill="none" stroke="#000000" points="258,-252 258,-296 365,-296 365,-252 258,-252"/>
<text text-anchor="start" x="283.7205" y="-277" font-family="Helvetica,sans-Serif" font-size="10.00" fill="#000000">&#45;name:string</text>
<text text-anchor="start" x="267.8835" y="-265" font-family="Helvetica,sans-Serif" font-size="10.00" fill="#000000">&#45;dueDate:DateTime</text>
<polygon fill="none" stroke="#000000" points="258,-220 258,-252 365,-252 365,-220 258,-220"/>
<text text-anchor="start" x="268.018" y="-233" font-family="Helvetica,sans-Serif" font-size="10.00" fill="#000000">+ChangeDueDate()</text>
<polygon fill="none" stroke="#000000" points="258,-176 258,-220 365,-220 365,-176 258,-176"/>
<text text-anchor="start" x="282.331" y="-201" font-family="Helvetica,sans-Serif" font-size="10.00" fill="#000000">(name:string,</text>
<text text-anchor="start" x="267.8835" y="-189" font-family="Helvetica,sans-Serif" font-size="10.00" fill="#000000">dueDate:DateTime)</text>
</g>
<!-- A0&#45;&gt;A7 -->
<g id="edge15" class="edge">
<title>A0&#45;&gt;A7</title>
<path fill="none" stroke="#000000" stroke-dasharray="5,2" d="M311,-635.702C311,-543.3948 311,-410.8593 311,-328.183"/>
<polygon fill="#000000" stroke="#000000" points="311,-645.9087 306.5001,-635.9086 311,-640.9087 311.0001,-635.9087 311.0001,-635.9087 311.0001,-635.9087 311,-640.9087 315.5001,-635.9087 311,-645.9087 311,-645.9087"/>
</g>
<!-- A8 -->
<g id="node9" class="node">
<title>A8</title>
<polygon fill="none" stroke="#000000" points="340,-534 340,-566 447,-566 447,-534 340,-534"/>
<text text-anchor="start" x="370.8545" y="-547" font-family="Helvetica,sans-Serif" font-size="10.00" fill="#000000">+Deadline</text>
<polygon fill="none" stroke="#000000" points="340,-490 340,-534 447,-534 447,-490 340,-490"/>
<text text-anchor="start" x="365.7205" y="-515" font-family="Helvetica,sans-Serif" font-size="10.00" fill="#000000">&#45;name:string</text>
<text text-anchor="start" x="349.8835" y="-503" font-family="Helvetica,sans-Serif" font-size="10.00" fill="#000000">&#45;dueDate:DateTime</text>
<polygon fill="none" stroke="#000000" points="340,-458 340,-490 447,-490 447,-458 340,-458"/>
<text text-anchor="start" x="350.018" y="-471" font-family="Helvetica,sans-Serif" font-size="10.00" fill="#000000">+ChangeDueDate()</text>
<polygon fill="none" stroke="#000000" points="340,-414 340,-458 447,-458 447,-414 340,-414"/>
<text text-anchor="start" x="364.331" y="-439" font-family="Helvetica,sans-Serif" font-size="10.00" fill="#000000">(name:string,</text>
<text text-anchor="start" x="349.8835" y="-427" font-family="Helvetica,sans-Serif" font-size="10.00" fill="#000000">dueDate:DateTime)</text>
</g>
<!-- A0&#45;&gt;A8 -->
<g id="edge16" class="edge">
<title>A0&#45;&gt;A8</title>
<path fill="none" stroke="#000000" stroke-dasharray="5,2" d="M345.0425,-636.2117C352.7381,-612.7496 360.7706,-588.2604 368.0123,-566.1819"/>
<polygon fill="#000000" stroke="#000000" points="341.8838,-645.842 340.7247,-634.9375 343.4422,-641.091 345.0005,-636.34 345.0005,-636.34 345.0005,-636.34 343.4422,-641.091 349.2764,-637.7425 341.8838,-645.842 341.8838,-645.842"/>
</g>
<!-- A11 -->
<g id="node12" class="node">
<title>A11</title>
<polygon fill="none" stroke="#000000" points="0,-528 0,-560 106,-560 106,-528 0,-528"/>
<text text-anchor="start" x="30.3535" y="-541" font-family="Helvetica,sans-Serif" font-size="10.00" fill="#000000">+Payment</text>
<polygon fill="none" stroke="#000000" points="0,-484 0,-528 106,-528 106,-484 0,-484"/>
<text text-anchor="start" x="25.2205" y="-509" font-family="Helvetica,sans-Serif" font-size="10.00" fill="#000000">&#45;name:string</text>
<text text-anchor="start" x="9.663" y="-497" font-family="Helvetica,sans-Serif" font-size="10.00" fill="#000000">&#45;payDate:DateTime</text>
<polygon fill="none" stroke="#000000" points="0,-464 0,-484 106,-484 106,-464 0,-464"/>
<polygon fill="none" stroke="#000000" points="0,-420 0,-464 106,-464 106,-420 0,-420"/>
<text text-anchor="start" x="23.831" y="-445" font-family="Helvetica,sans-Serif" font-size="10.00" fill="#000000">(name:string,</text>
<text text-anchor="start" x="9.663" y="-433" font-family="Helvetica,sans-Serif" font-size="10.00" fill="#000000">payDate:DateTime)</text>
</g>
<!-- A0&#45;&gt;A11 -->
<g id="edge17" class="edge">
<title>A0&#45;&gt;A11</title>
<path fill="none" stroke="#000000" stroke-dasharray="5,2" d="M224.2533,-655.9431C185.1322,-618.0351 140.1829,-574.4796 106.1535,-541.5053"/>
<polygon fill="#000000" stroke="#000000" points="231.4863,-662.9518 221.1732,-659.2247 227.8955,-659.4724 224.3047,-655.993 224.3047,-655.993 224.3047,-655.993 227.8955,-659.4724 227.4362,-652.7613 231.4863,-662.9518 231.4863,-662.9518"/>
</g>
<!-- A12 -->
<g id="node13" class="node">
<title>A12</title>
<polygon fill="none" stroke="#000000" points="173,-528 173,-560 283,-560 283,-528 173,-528"/>
<text text-anchor="start" x="182.852" y="-541" font-family="Helvetica,sans-Serif" font-size="10.00" fill="#000000">+UpcomingPayment</text>
<polygon fill="none" stroke="#000000" points="173,-484 173,-528 283,-528 283,-484 173,-484"/>
<text text-anchor="start" x="200.2205" y="-509" font-family="Helvetica,sans-Serif" font-size="10.00" fill="#000000">&#45;name:string</text>
<text text-anchor="start" x="184.3835" y="-497" font-family="Helvetica,sans-Serif" font-size="10.00" fill="#000000">&#45;dueDate:DateTime</text>
<polygon fill="none" stroke="#000000" points="173,-464 173,-484 283,-484 283,-464 173,-464"/>
<polygon fill="none" stroke="#000000" points="173,-420 173,-464 283,-464 283,-420 173,-420"/>
<text text-anchor="start" x="198.831" y="-445" font-family="Helvetica,sans-Serif" font-size="10.00" fill="#000000">(name:string,</text>
<text text-anchor="start" x="184.3835" y="-433" font-family="Helvetica,sans-Serif" font-size="10.00" fill="#000000">dueDate:DateTime)</text>
</g>
<!-- A0&#45;&gt;A12 -->
<g id="edge18" class="edge">
<title>A0&#45;&gt;A12</title>
<path fill="none" stroke="#000000" stroke-dasharray="5,2" d="M276.5122,-636.1212C268.0322,-610.5789 259.1499,-583.8249 251.3373,-560.2932"/>
<polygon fill="#000000" stroke="#000000" points="279.7395,-645.842 272.3178,-637.7693 278.1641,-641.0966 276.5886,-636.3513 276.5886,-636.3513 276.5886,-636.3513 278.1641,-641.0966 280.8594,-634.9334 279.7395,-645.842 279.7395,-645.842"/>
</g>
<!-- A14 -->
<g id="node15" class="node">
<title>A14</title>
<polygon fill="none" stroke="#000000" points="762,-564 762,-596 1060,-596 1060,-564 762,-564"/>
<text text-anchor="start" x="897.2475" y="-577" font-family="Helvetica,sans-Serif" font-size="10.00" fill="#000000">+Meal</text>
<polygon fill="none" stroke="#000000" points="762,-496 762,-564 1060,-564 1060,-496 762,-496"/>
<text text-anchor="start" x="883.2205" y="-545" font-family="Helvetica,sans-Serif" font-size="10.00" fill="#000000">&#45;name:string</text>
<text text-anchor="start" x="856.8215" y="-533" font-family="Helvetica,sans-Serif" font-size="10.00" fill="#000000">&#45;ingredients:List&lt;String&gt;</text>
<text text-anchor="start" x="882.111" y="-521" font-family="Helvetica,sans-Serif" font-size="10.00" fill="#000000">&#45;recipe:string</text>
<text text-anchor="start" x="887.66" y="-509" font-family="Helvetica,sans-Serif" font-size="10.00" fill="#000000">&#45;date:Date</text>
<polygon fill="none" stroke="#000000" points="762,-464 762,-496 1060,-496 1060,-464 762,-464"/>
<text text-anchor="start" x="853.076" y="-477" font-family="Helvetica,sans-Serif" font-size="10.00" fill="#000000">+AddRecipe(recipe:string)</text>
<polygon fill="none" stroke="#000000" points="762,-384 762,-464 1060,-464 1060,-384 762,-384"/>
<text text-anchor="start" x="881.831" y="-445" font-family="Helvetica,sans-Serif" font-size="10.00" fill="#000000">(name:string,</text>
<text text-anchor="start" x="856.8215" y="-433" font-family="Helvetica,sans-Serif" font-size="10.00" fill="#000000">ingredients:List&lt;String&gt;)</text>
<text text-anchor="start" x="796.2595" y="-421" font-family="Helvetica,sans-Serif" font-size="10.00" fill="#000000">(name:string, ingredients:List&lt;String&gt;, recipe:string)</text>
<text text-anchor="start" x="801.8085" y="-409" font-family="Helvetica,sans-Serif" font-size="10.00" fill="#000000">(name:string, ingredients:List&lt;String&gt;, date:Date)</text>
<text text-anchor="start" x="771.805" y="-397" font-family="Helvetica,sans-Serif" font-size="10.00" fill="#000000">(name:string, ingredients:List&lt;String&gt;, recipe:string, date:Date)</text>
</g>
<!-- A0&#45;&gt;A14 -->
<g id="edge19" class="edge">
<title>A0&#45;&gt;A14</title>
<path fill="none" stroke="#000000" stroke-dasharray="5,2" d="M400.3285,-707.1402C475.8755,-678.9186 586.7209,-636.4944 682,-596 708.0059,-584.9473 735.4442,-572.7352 761.9423,-560.6496"/>
<polygon fill="#000000" stroke="#000000" points="390.8328,-710.6821 398.6296,-702.971 395.5175,-708.9347 400.2023,-707.1872 400.2023,-707.1872 400.2023,-707.1872 395.5175,-708.9347 401.775,-711.4035 390.8328,-710.6821 390.8328,-710.6821"/>
</g>
<!-- A1 -->
<g id="node2" class="node">
<title>A1</title>
<polygon fill="none" stroke="#000000" points="422,-298 422,-330 771,-330 771,-298 422,-298"/>
<text text-anchor="start" x="576.913" y="-311" font-family="Helvetica,sans-Serif" font-size="10.00" fill="#000000">+NavBar</text>
<polygon fill="none" stroke="#000000" points="422,-242 422,-298 771,-298 771,-242 422,-242"/>
<text text-anchor="start" x="567.461" y="-279" font-family="Helvetica,sans-Serif" font-size="10.00" fill="#000000">+quote:string</text>
<text text-anchor="start" x="498.2795" y="-267" font-family="Helvetica,sans-Serif" font-size="10.00" fill="#000000">+deadlines:SortedList&lt;DateTime, Deadline&gt;</text>
<text text-anchor="start" x="559.1315" y="-255" font-family="Helvetica,sans-Serif" font-size="10.00" fill="#000000">+toDos:ToDoList</text>
<polygon fill="none" stroke="#000000" points="422,-174 422,-242 771,-242 771,-174 422,-174"/>
<text text-anchor="start" x="567.0515" y="-223" font-family="Helvetica,sans-Serif" font-size="10.00" fill="#000000">(quote:string)</text>
<text text-anchor="start" x="468.9715" y="-211" font-family="Helvetica,sans-Serif" font-size="10.00" fill="#000000">(quote:string, deadlines:SortedList&lt;DateTime, Deadline&gt;)</text>
<text text-anchor="start" x="529.8235" y="-199" font-family="Helvetica,sans-Serif" font-size="10.00" fill="#000000">(quote:string, toDos:ToDoList)</text>
<text text-anchor="start" x="431.7435" y="-187" font-family="Helvetica,sans-Serif" font-size="10.00" fill="#000000">(quote:string, deadlines:SortedList&lt;DateTime, Deadline&gt;, toDos:ToDoList)</text>
</g>
<!-- A2 -->
<g id="node3" class="node">
<title>A2</title>
<polygon fill="none" stroke="#000000" points="342,-76 342,-108 444,-108 444,-76 342,-76"/>
<text text-anchor="start" x="372.8485" y="-89" font-family="Helvetica,sans-Serif" font-size="10.00" fill="#000000">+Agenda</text>
<polygon fill="none" stroke="#000000" points="342,-56 342,-76 444,-76 444,-56 342,-56"/>
<polygon fill="none" stroke="#000000" points="342,-12 342,-56 444,-56 444,-12 342,-12"/>
<text text-anchor="start" x="351.742" y="-37" font-family="Helvetica,sans-Serif" font-size="10.00" fill="#000000">+AddAssignment()</text>
<text text-anchor="start" x="358.132" y="-25" font-family="Helvetica,sans-Serif" font-size="10.00" fill="#000000">+AddDeadline()</text>
</g>
<!-- A1&#45;&gt;A2 -->
<g id="edge11" class="edge">
<title>A1&#45;&gt;A2</title>
<path fill="none" stroke="#000000" d="M505.959,-166.838C484.7338,-146.763 462.8315,-126.0476 444.0289,-108.2638"/>
<polygon fill="#000000" stroke="#000000" points="513.4321,-173.9063 503.0748,-170.3041 509.7995,-170.4705 506.1669,-167.0347 506.1669,-167.0347 506.1669,-167.0347 509.7995,-170.4705 509.2591,-163.7654 513.4321,-173.9063 513.4321,-173.9063"/>
</g>
<!-- A3 -->
<g id="node4" class="node">
<title>A3</title>
<polygon fill="none" stroke="#000000" points="90,-88 90,-120 198,-120 198,-88 90,-88"/>
<text text-anchor="start" x="106.356" y="-101" font-family="Helvetica,sans-Serif" font-size="10.00" fill="#000000">+FinanceTracker</text>
<polygon fill="none" stroke="#000000" points="90,-68 90,-88 198,-88 198,-68 90,-68"/>
<polygon fill="none" stroke="#000000" points="90,0 90,-68 198,-68 198,0 90,0"/>
<text text-anchor="start" x="110.7955" y="-49" font-family="Helvetica,sans-Serif" font-size="10.00" fill="#000000">+AddAccount()</text>
<text text-anchor="start" x="113.016" y="-37" font-family="Helvetica,sans-Serif" font-size="10.00" fill="#000000">+AddBudget()</text>
<text text-anchor="start" x="109.131" y="-25" font-family="Helvetica,sans-Serif" font-size="10.00" fill="#000000">+AddPayment()</text>
<text text-anchor="start" x="99.9625" y="-13" font-family="Helvetica,sans-Serif" font-size="10.00" fill="#000000">+AddPaymentDue()</text>
</g>
<!-- A1&#45;&gt;A3 -->
<g id="edge12" class="edge">
<title>A1&#45;&gt;A3</title>
<path fill="none" stroke="#000000" d="M411.8908,-173.7943C334.8921,-141.0869 251.1707,-105.5238 198.1849,-83.0166"/>
<polygon fill="#000000" stroke="#000000" points="421.245,-177.7678 410.2816,-177.9999 416.643,-175.8129 412.0409,-173.858 412.0409,-173.858 412.0409,-173.858 416.643,-175.8129 413.8003,-169.7162 421.245,-177.7678 421.245,-177.7678"/>
</g>
<!-- A4 -->
<g id="node5" class="node">
<title>A4</title>
<polygon fill="none" stroke="#000000" points="977,-76 977,-108 1097,-108 1097,-76 977,-76"/>
<text text-anchor="start" x="1005.4705" y="-89" font-family="Helvetica,sans-Serif" font-size="10.00" fill="#000000">+HabitTracker</text>
<polygon fill="none" stroke="#000000" points="977,-56 977,-76 1097,-76 1097,-56 977,-56"/>
<polygon fill="none" stroke="#000000" points="977,-12 977,-56 1097,-56 1097,-12 977,-12"/>
<text text-anchor="start" x="1010.1905" y="-37" font-family="Helvetica,sans-Serif" font-size="10.00" fill="#000000">+AddHabit()</text>
<text text-anchor="start" x="986.585" y="-25" font-family="Helvetica,sans-Serif" font-size="10.00" fill="#000000">+DailyHabitComplete()</text>
</g>
<!-- A1&#45;&gt;A4 -->
<g id="edge13" class="edge">
<title>A1&#45;&gt;A4</title>
<path fill="none" stroke="#000000" d="M779.6938,-170.1176C779.7959,-170.0784 779.898,-170.0392 780,-170 847.1802,-144.2068 868.3134,-149.3894 934,-120 948.2621,-113.6189 963.0706,-105.7829 976.8627,-97.9052"/>
<polygon fill="#000000" stroke="#000000" points="770.1351,-173.8381 777.8218,-166.0173 774.7946,-172.0245 779.4541,-170.2109 779.4541,-170.2109 779.4541,-170.2109 774.7946,-172.0245 781.0864,-174.4044 770.1351,-173.8381 770.1351,-173.8381"/>
</g>
<!-- A5 -->
<g id="node6" class="node">
<title>A5</title>
<polygon fill="none" stroke="#000000" points="820,-76 820,-108 925,-108 925,-76 820,-76"/>
<text text-anchor="start" x="841.521" y="-89" font-family="Helvetica,sans-Serif" font-size="10.00" fill="#000000">+MealPlanner</text>
<polygon fill="none" stroke="#000000" points="820,-56 820,-76 925,-76 925,-56 820,-56"/>
<polygon fill="none" stroke="#000000" points="820,-12 820,-56 925,-56 925,-12 820,-12"/>
<text text-anchor="start" x="846.525" y="-37" font-family="Helvetica,sans-Serif" font-size="10.00" fill="#000000">+AddMeal()</text>
<text text-anchor="start" x="829.8575" y="-25" font-family="Helvetica,sans-Serif" font-size="10.00" fill="#000000">+AddToGroceries()</text>
</g>
<!-- A1&#45;&gt;A5 -->
<g id="edge14" class="edge">
<title>A1&#45;&gt;A5</title>
<path fill="none" stroke="#000000" d="M716.8402,-167.9373C752.6634,-143.0168 790.0535,-117.0063 819.1518,-96.764"/>
<polygon fill="#000000" stroke="#000000" points="708.2598,-173.9063 713.899,-164.5015 712.3643,-171.0509 716.4688,-168.1956 716.4688,-168.1956 716.4688,-168.1956 712.3643,-171.0509 719.0386,-171.8896 708.2598,-173.9063 708.2598,-173.9063"/>
</g>
<!-- A6 -->
<g id="node7" class="node">
<title>A6</title>
<polygon fill="none" stroke="#000000" points="519,-528 519,-560 673,-560 673,-528 519,-528"/>
<text text-anchor="start" x="573.079" y="-541" font-family="Helvetica,sans-Serif" font-size="10.00" fill="#000000">+ToDoList</text>
<polygon fill="none" stroke="#000000" points="519,-496 519,-528 673,-528 673,-496 519,-496"/>
<text text-anchor="start" x="558.2125" y="-509" font-family="Helvetica,sans-Serif" font-size="10.00" fill="#000000">toDo:List&lt;string&gt;</text>
<polygon fill="none" stroke="#000000" points="519,-464 519,-496 673,-496 673,-464 519,-464"/>
<text text-anchor="start" x="547.243" y="-477" font-family="Helvetica,sans-Serif" font-size="10.00" fill="#000000">+AddTask(task:string)</text>
<polygon fill="none" stroke="#000000" points="519,-420 519,-464 673,-464 673,-420 519,-420"/>
<text text-anchor="start" x="592.671" y="-445" font-family="Helvetica,sans-Serif" font-size="10.00" fill="#000000">()</text>
<text text-anchor="start" x="528.7735" y="-433" font-family="Helvetica,sans-Serif" font-size="10.00" fill="#000000">(task:string)(toDo:List&lt;string&gt;)</text>
</g>
<!-- A6&#45;&gt;A1 -->
<g id="edge1" class="edge">
<title>A6&#45;&gt;A1</title>
<path fill="none" stroke="#000000" d="M596,-409.8288C596,-384.1999 596,-355.8724 596,-330.3731"/>
<polygon fill="#000000" stroke="#000000" points="596,-419.8794 591.5001,-409.8794 596,-414.8794 596.0001,-409.8794 596.0001,-409.8794 596.0001,-409.8794 596,-414.8794 600.5001,-409.8795 596,-419.8794 596,-419.8794"/>
</g>
<!-- A7&#45;&gt;A2 -->
<g id="edge3" class="edge">
<title>A7&#45;&gt;A2</title>
<path fill="none" stroke="#000000" d="M347.556,-166.4055C356.0911,-146.4209 364.8862,-125.8275 372.4382,-108.1448"/>
<polygon fill="#000000" stroke="#000000" points="343.5263,-175.8408 343.3157,-164.8769 345.4902,-171.2425 347.454,-166.6443 347.454,-166.6443 347.454,-166.6443 345.4902,-171.2425 351.5924,-168.4118 343.5263,-175.8408 343.5263,-175.8408"/>
</g>
<!-- A8&#45;&gt;A1 -->
<g id="edge2" class="edge">
<title>A8&#45;&gt;A1</title>
<path fill="none" stroke="#000000" d="M453.252,-419.3597C477.1983,-391.2847 504.8357,-358.8823 529.3765,-330.1103"/>
<polygon fill="#000000" stroke="#000000" points="446.6014,-427.157 449.6671,-416.6283 449.8461,-423.3528 453.0909,-419.5486 453.0909,-419.5486 453.0909,-419.5486 449.8461,-423.3528 456.5147,-422.4689 446.6014,-427.157 446.6014,-427.157"/>
</g>
<!-- A8&#45;&gt;A2 -->
<g id="edge4" class="edge">
<title>A8&#45;&gt;A2</title>
<path fill="none" stroke="#000000" d="M393,-403.554C393,-314.6503 393,-179.4028 393,-108.0128"/>
<polygon fill="#000000" stroke="#000000" points="393,-413.6201 388.5001,-403.6201 393,-408.6201 393.0001,-403.6201 393.0001,-403.6201 393.0001,-403.6201 393,-408.6201 397.5001,-403.6201 393,-413.6201 393,-413.6201"/>
</g>
<!-- A9 -->
<g id="node10" class="node">
<title>A9</title>
<polygon fill="none" stroke="#000000" points="161,-278 161,-310 239,-310 239,-278 161,-278"/>
<text text-anchor="start" x="179.018" y="-291" font-family="Helvetica,sans-Serif" font-size="10.00" fill="#000000">+Account</text>
<polygon fill="none" stroke="#000000" points="161,-246 161,-278 239,-278 239,-246 161,-246"/>
<text text-anchor="start" x="172.2205" y="-259" font-family="Helvetica,sans-Serif" font-size="10.00" fill="#000000">&#45;name:string</text>
<polygon fill="none" stroke="#000000" points="161,-226 161,-246 239,-246 239,-226 161,-226"/>
<polygon fill="none" stroke="#000000" points="161,-194 161,-226 239,-226 239,-194 161,-194"/>
<text text-anchor="start" x="170.556" y="-207" font-family="Helvetica,sans-Serif" font-size="10.00" fill="#000000">(name:string)</text>
</g>
<!-- A9&#45;&gt;A3 -->
<g id="edge5" class="edge">
<title>A9&#45;&gt;A3</title>
<path fill="none" stroke="#000000" d="M180.2074,-184.1397C174.1321,-163.3101 167.4913,-140.5418 161.575,-120.2571"/>
<polygon fill="#000000" stroke="#000000" points="183.0462,-193.8726 175.9261,-185.5327 181.6461,-189.0726 180.2461,-184.2726 180.2461,-184.2726 180.2461,-184.2726 181.6461,-189.0726 184.5661,-183.0126 183.0462,-193.8726 183.0462,-193.8726"/>
</g>
<!-- A10 -->
<g id="node11" class="node">
<title>A10</title>
<polygon fill="none" stroke="#000000" points="31,-278 31,-310 143,-310 143,-278 31,-278"/>
<text text-anchor="start" x="68.2385" y="-291" font-family="Helvetica,sans-Serif" font-size="10.00" fill="#000000">+Budget</text>
<polygon fill="none" stroke="#000000" points="31,-246 31,-278 143,-278 143,-246 31,-246"/>
<text text-anchor="start" x="58.6645" y="-259" font-family="Helvetica,sans-Serif" font-size="10.00" fill="#000000">&#45;maxAmount</text>
<polygon fill="none" stroke="#000000" points="31,-226 31,-246 143,-246 143,-226 31,-226"/>
<polygon fill="none" stroke="#000000" points="31,-194 31,-226 143,-226 143,-194 31,-194"/>
<text text-anchor="start" x="40.6035" y="-207" font-family="Helvetica,sans-Serif" font-size="10.00" fill="#000000">(maxAmount:double)</text>
</g>
<!-- A10&#45;&gt;A3 -->
<g id="edge6" class="edge">
<title>A10&#45;&gt;A3</title>
<path fill="none" stroke="#000000" d="M107.146,-184.1397C113.3298,-163.3101 120.0892,-140.5418 126.1112,-120.2571"/>
<polygon fill="#000000" stroke="#000000" points="104.2566,-193.8726 102.7887,-183.0054 105.6796,-189.0794 107.1026,-184.2862 107.1026,-184.2862 107.1026,-184.2862 105.6796,-189.0794 111.4165,-185.5669 104.2566,-193.8726 104.2566,-193.8726"/>
</g>
<!-- A11&#45;&gt;A3 -->
<g id="edge7" class="edge">
<title>A11&#45;&gt;A3</title>
<path fill="none" stroke="#000000" d="M23.9078,-410.0271C4.4375,-343.056 -11.9999,-246.435 22,-170 36.0248,-138.4709 64.0471,-112.1722 89.7016,-93.2033"/>
<polygon fill="#000000" stroke="#000000" points="26.7969,-419.6871 19.6201,-411.3958 25.3641,-414.8967 23.9314,-410.1064 23.9314,-410.1064 23.9314,-410.1064 25.3641,-414.8967 28.2428,-408.8169 26.7969,-419.6871 26.7969,-419.6871"/>
</g>
<!-- A13 -->
<g id="node14" class="node">
<title>A13</title>
<polygon fill="none" stroke="#000000" points="1011,-284 1011,-316 1131,-316 1131,-284 1011,-284"/>
<text text-anchor="start" x="1056.413" y="-297" font-family="Helvetica,sans-Serif" font-size="10.00" fill="#000000">+Habit</text>
<polygon fill="none" stroke="#000000" points="1011,-252 1011,-284 1131,-284 1131,-252 1011,-252"/>
<text text-anchor="start" x="1043.2205" y="-265" font-family="Helvetica,sans-Serif" font-size="10.00" fill="#000000">&#45;name:string</text>
<polygon fill="none" stroke="#000000" points="1011,-220 1011,-252 1131,-252 1131,-220 1011,-220"/>
<text text-anchor="start" x="1020.585" y="-233" font-family="Helvetica,sans-Serif" font-size="10.00" fill="#000000">+DailyHabitComplete()</text>
<polygon fill="none" stroke="#000000" points="1011,-188 1011,-220 1131,-220 1131,-188 1011,-188"/>
<text text-anchor="start" x="1041.556" y="-201" font-family="Helvetica,sans-Serif" font-size="10.00" fill="#000000">(name:string)</text>
</g>
<!-- A13&#45;&gt;A4 -->
<g id="edge8" class="edge">
<title>A13&#45;&gt;A4</title>
<path fill="none" stroke="#000000" d="M1057.8749,-177.8817C1053.723,-154.4358 1049.2454,-129.1507 1045.5059,-108.0332"/>
<polygon fill="#000000" stroke="#000000" points="1059.6312,-187.7998 1053.4564,-178.7377 1058.7593,-182.8764 1057.8874,-177.953 1057.8874,-177.953 1057.8874,-177.953 1058.7593,-182.8764 1062.3185,-177.1683 1059.6312,-187.7998 1059.6312,-187.7998"/>
</g>
<!-- A14&#45;&gt;A5 -->
<g id="edge9" class="edge">
<title>A14&#45;&gt;A5</title>
<path fill="none" stroke="#000000" d="M958.6923,-373.9247C977.2124,-311.9853 988.9,-235.2868 965,-170 956.5321,-146.8685 940.8124,-125.2525 924.6749,-107.4103"/>
<polygon fill="#000000" stroke="#000000" points="955.6657,-383.7349 954.3138,-372.8527 957.1397,-378.9571 958.6138,-374.1793 958.6138,-374.1793 958.6138,-374.1793 957.1397,-378.9571 962.9138,-375.506 955.6657,-383.7349 955.6657,-383.7349"/>
</g>
<!-- A15 -->
<g id="node16" class="node">
<title>A15</title>
<polygon fill="none" stroke="#000000" points="789,-302 789,-334 956,-334 956,-302 789,-302"/>
<text text-anchor="start" x="844.0245" y="-315" font-family="Helvetica,sans-Serif" font-size="10.00" fill="#000000">+GroceryList</text>
<polygon fill="none" stroke="#000000" points="789,-270 789,-302 956,-302 956,-270 789,-270"/>
<text text-anchor="start" x="804.9885" y="-283" font-family="Helvetica,sans-Serif" font-size="10.00" fill="#000000">items:SortedList&lt;string,string&gt;</text>
<polygon fill="none" stroke="#000000" points="789,-238 789,-270 956,-270 956,-238 789,-238"/>
<text text-anchor="start" x="798.7405" y="-251" font-family="Helvetica,sans-Serif" font-size="10.00" fill="#000000">+AddItem(type:string, item:string)</text>
<polygon fill="none" stroke="#000000" points="789,-170 789,-238 956,-238 956,-170 789,-170"/>
<text text-anchor="start" x="869.171" y="-219" font-family="Helvetica,sans-Serif" font-size="10.00" fill="#000000">()</text>
<text text-anchor="start" x="846.3855" y="-207" font-family="Helvetica,sans-Serif" font-size="10.00" fill="#000000">(type:string,</text>
<text text-anchor="start" x="847.7805" y="-195" font-family="Helvetica,sans-Serif" font-size="10.00" fill="#000000">item:string)</text>
<text text-anchor="start" x="800.27" y="-183" font-family="Helvetica,sans-Serif" font-size="10.00" fill="#000000">(items:SortedList&lt;string, string&gt;)</text>
</g>
<!-- A15&#45;&gt;A5 -->
<g id="edge10" class="edge">
<title>A15&#45;&gt;A5</title>
<path fill="none" stroke="#000000" d="M872,-159.315C872,-141.5495 872,-123.6324 872,-108.0013"/>
<polygon fill="#000000" stroke="#000000" points="872,-169.7392 867.5001,-159.7391 872,-164.7392 872.0001,-159.7392 872.0001,-159.7392 872.0001,-159.7392 872,-164.7392 876.5001,-159.7392 872,-169.7392 872,-169.7392"/>
</g>
</g>
</svg>
