<?xml version="1.0" encoding="UTF-8" standalone="no"?>
<!DOCTYPE svg PUBLIC "-//W3C//DTD SVG 1.1//EN"
 "http://www.w3.org/Graphics/SVG/1.1/DTD/svg11.dtd">
<!-- Generated by graphviz version 2.40.1 (20161225.0304)
 -->
<!-- Title: G Pages: 1 -->
<svg width="536pt" height="596pt"
 viewBox="0.00 0.00 535.50 596.00" xmlns="http://www.w3.org/2000/svg" xmlns:xlink="http://www.w3.org/1999/xlink">
<g id="graph0" class="graph" transform="scale(1 1) rotate(0) translate(4 592)">
<title>G</title>
<polygon fill="#ffffff" stroke="transparent" points="-4,4 -4,-592 531.5,-592 531.5,4 -4,4"/>
<!-- A0 -->
<g id="node1" class="node">
<title>A0</title>
<polygon fill="none" stroke="#000000" points="196,-556 196,-588 270,-588 270,-556 196,-556"/>
<text text-anchor="start" x="205.905" y="-569" font-family="Helvetica,sans-Serif" font-size="10.00" fill="#000000">+I:PlaySong</text>
<polygon fill="none" stroke="#000000" points="196,-512 196,-556 270,-556 270,-512 196,-512"/>
<text text-anchor="start" x="219.9475" y="-537" font-family="Helvetica,sans-Serif" font-size="10.00" fill="#000000">Play()</text>
<text text-anchor="start" x="219.388" y="-525" font-family="Helvetica,sans-Serif" font-size="10.00" fill="#000000">Stop()</text>
</g>
<!-- A2 -->
<g id="node3" class="node">
<title>A2</title>
<polygon fill="none" stroke="#000000" points="226,-430 226,-462 335,-462 335,-430 226,-430"/>
<text text-anchor="start" x="254.2405" y="-443" font-family="Helvetica,sans-Serif" font-size="10.00" fill="#000000">+A:Stringed</text>
<polygon fill="none" stroke="#000000" points="226,-350 226,-430 335,-430 335,-350 226,-350"/>
<text text-anchor="start" x="246.887" y="-411" font-family="Helvetica,sans-Serif" font-size="10.00" fill="#000000">&#45;numStrings:int</text>
<text text-anchor="start" x="246.4605" y="-399" font-family="Helvetica,sans-Serif" font-size="10.00" fill="#000000">+usesBow:bool</text>
<text text-anchor="start" x="246.74" y="-387" font-family="Helvetica,sans-Serif" font-size="10.00" fill="#000000">+usesPick:bool</text>
<text text-anchor="start" x="248.961" y="-375" font-family="Helvetica,sans-Serif" font-size="10.00" fill="#000000">+isTuned:bool</text>
<text text-anchor="start" x="235.903" y="-363" font-family="Helvetica,sans-Serif" font-size="10.00" fill="#000000">+needsRepairs:bool</text>
<polygon fill="none" stroke="#000000" points="226,-270 226,-350 335,-350 335,-270 226,-270"/>
<text text-anchor="start" x="241.748" y="-331" font-family="Helvetica,sans-Serif" font-size="10.00" fill="#000000">+NumStrings:int:r</text>
<text text-anchor="start" x="260.6385" y="-319" font-family="Helvetica,sans-Serif" font-size="10.00" fill="#000000">+Play():v</text>
<text text-anchor="start" x="260.079" y="-307" font-family="Helvetica,sans-Serif" font-size="10.00" fill="#000000">+Stop():v</text>
<text text-anchor="start" x="259.5295" y="-295" font-family="Helvetica,sans-Serif" font-size="10.00" fill="#000000">+Repair()</text>
<text text-anchor="start" x="258.6895" y="-283" font-family="Helvetica,sans-Serif" font-size="10.00" fill="#000000">+Tune():a</text>
<polygon fill="none" stroke="#000000" points="226,-202 226,-270 335,-270 335,-202 226,-202"/>
<text text-anchor="start" x="277.171" y="-251" font-family="Helvetica,sans-Serif" font-size="10.00" fill="#000000">()</text>
<text text-anchor="start" x="245.4975" y="-239" font-family="Helvetica,sans-Serif" font-size="10.00" fill="#000000">(numStrings:int,</text>
<text text-anchor="start" x="247.9905" y="-227" font-family="Helvetica,sans-Serif" font-size="10.00" fill="#000000">usesBow:bool,</text>
<text text-anchor="start" x="247.995" y="-215" font-family="Helvetica,sans-Serif" font-size="10.00" fill="#000000">usesPick:bool)</text>
</g>
<!-- A0&#45;&gt;A2 -->
<g id="edge1" class="edge">
<title>A0&#45;&gt;A2</title>
<path fill="none" stroke="#000000" d="M243.4239,-501.6508C246.0047,-489.6804 248.8941,-476.2783 251.8875,-462.3941"/>
<polygon fill="none" stroke="#000000" points="239.9268,-501.2648 241.2406,-511.7778 246.7696,-502.7401 239.9268,-501.2648"/>
</g>
<!-- A1 -->
<g id="node2" class="node">
<title>A1</title>
<polygon fill="none" stroke="#000000" points="288,-556 288,-588 366,-588 366,-556 288,-556"/>
<text text-anchor="start" x="297.686" y="-569" font-family="Helvetica,sans-Serif" font-size="10.00" fill="#000000">+I:Instrument</text>
<polygon fill="none" stroke="#000000" points="288,-512 288,-556 366,-556 366,-512 288,-512"/>
<text text-anchor="start" x="308.949" y="-537" font-family="Helvetica,sans-Serif" font-size="10.00" fill="#000000">Repair()</text>
<text text-anchor="start" x="312.278" y="-525" font-family="Helvetica,sans-Serif" font-size="10.00" fill="#000000">Tune()</text>
</g>
<!-- A1&#45;&gt;A2 -->
<g id="edge2" class="edge">
<title>A1&#45;&gt;A2</title>
<path fill="none" stroke="#000000" d="M316.5761,-501.6508C313.9953,-489.6804 311.1059,-476.2783 308.1125,-462.3941"/>
<polygon fill="none" stroke="#000000" points="313.2304,-502.7401 318.7594,-511.7778 320.0732,-501.2648 313.2304,-502.7401"/>
</g>
<!-- A3 -->
<g id="node4" class="node">
<title>A3</title>
<polygon fill="none" stroke="#000000" points="0,-120 0,-152 288,-152 288,-120 0,-120"/>
<text text-anchor="start" x="127.4685" y="-133" font-family="Helvetica,sans-Serif" font-size="10.00" fill="#000000">+Guitar</text>
<polygon fill="none" stroke="#000000" points="0,-88 0,-120 288,-120 288,-88 0,-88"/>
<text text-anchor="start" x="110.2465" y="-101" font-family="Helvetica,sans-Serif" font-size="10.00" fill="#000000">+isElectric:bool</text>
<polygon fill="none" stroke="#000000" points="0,-56 0,-88 288,-88 288,-56 0,-56"/>
<text text-anchor="start" x="122.1895" y="-69" font-family="Helvetica,sans-Serif" font-size="10.00" fill="#000000">+Tune():o</text>
<polygon fill="none" stroke="#000000" points="0,0 0,-56 288,-56 288,0 0,0"/>
<text text-anchor="start" x="109.2725" y="-37" font-family="Helvetica,sans-Serif" font-size="10.00" fill="#000000">():base(6, false,</text>
<text text-anchor="start" x="133.7225" y="-25" font-family="Helvetica,sans-Serif" font-size="10.00" fill="#000000">true)</text>
<text text-anchor="start" x="9.543" y="-13" font-family="Helvetica,sans-Serif" font-size="10.00" fill="#000000">(isElectric:bool, numStrings:int):base(numStrings, false, true)</text>
</g>
<!-- A2&#45;&gt;A3 -->
<g id="edge3" class="edge">
<title>A2&#45;&gt;A3</title>
<path fill="none" stroke="#000000" stroke-dasharray="5,2" d="M220.6335,-220.2513C208.436,-197.2913 195.8619,-173.6224 184.5153,-152.2641"/>
<polygon fill="#000000" stroke="#000000" points="225.4672,-229.3501 216.8016,-222.6301 223.1214,-224.9345 220.7756,-220.5189 220.7756,-220.5189 220.7756,-220.5189 223.1214,-224.9345 224.7496,-218.4077 225.4672,-229.3501 225.4672,-229.3501"/>
</g>
<!-- A4 -->
<g id="node5" class="node">
<title>A4</title>
<polygon fill="none" stroke="#000000" points="307,-114 307,-146 528,-146 528,-114 307,-114"/>
<text text-anchor="start" x="402.3585" y="-127" font-family="Helvetica,sans-Serif" font-size="10.00" fill="#000000">+Violin</text>
<polygon fill="none" stroke="#000000" points="307,-94 307,-114 528,-114 528,-94 307,-94"/>
<polygon fill="none" stroke="#000000" points="307,-62 307,-94 528,-94 528,-62 307,-62"/>
<text text-anchor="start" x="395.6895" y="-75" font-family="Helvetica,sans-Serif" font-size="10.00" fill="#000000">+Tune():o</text>
<polygon fill="none" stroke="#000000" points="307,-6 307,-62 528,-62 528,-6 307,-6"/>
<text text-anchor="start" x="384.7175" y="-43" font-family="Helvetica,sans-Serif" font-size="10.00" fill="#000000">():base(4, true,</text>
<text text-anchor="start" x="405.2775" y="-31" font-family="Helvetica,sans-Serif" font-size="10.00" fill="#000000">false)</text>
<text text-anchor="start" x="316.656" y="-19" font-family="Helvetica,sans-Serif" font-size="10.00" fill="#000000">(numStrings:int):base(numStrings, true, false)</text>
</g>
<!-- A2&#45;&gt;A4 -->
<g id="edge4" class="edge">
<title>A2&#45;&gt;A4</title>
<path fill="none" stroke="#000000" stroke-dasharray="5,2" d="M339.3367,-221.1227C352.9669,-195.653 367.0901,-169.2623 379.4948,-146.0827"/>
<polygon fill="#000000" stroke="#000000" points="334.5397,-230.0864 335.2905,-219.1463 336.8989,-225.678 339.2581,-221.2696 339.2581,-221.2696 339.2581,-221.2696 336.8989,-225.678 343.2257,-223.3929 334.5397,-230.0864 334.5397,-230.0864"/>
</g>
</g>
</svg>
