<?xml version="1.0" encoding="UTF-8" standalone="no"?>
<!DOCTYPE svg PUBLIC "-//W3C//DTD SVG 1.1//EN"
 "http://www.w3.org/Graphics/SVG/1.1/DTD/svg11.dtd">
<!-- Generated by graphviz version 2.40.1 (20161225.0304)
 -->
<!-- Title: G Pages: 1 -->
<svg width="134pt" height="44pt"
 viewBox="0.00 0.00 134.00 44.00" xmlns="http://www.w3.org/2000/svg" xmlns:xlink="http://www.w3.org/1999/xlink">
<g id="graph0" class="graph" transform="scale(1 1) rotate(0) translate(4 40)">
<title>G</title>
<polygon fill="#ffffff" stroke="transparent" points="-4,4 -4,-40 130,-40 130,4 -4,4"/>
<!-- A0 -->
<g id="node1" class="node">
<title>A0</title>
<polygon fill="none" stroke="#000000" points="54,-36 0,-36 0,0 54,0 54,-36"/>
</g>
<!-- A0&#45;&gt;A0 -->
<g id="edge1" class="edge">
<title>A0&#45;&gt;A0</title>
<path fill="none" stroke="#000000" stroke-dasharray="5,2" d="M64.5105,-19.4545C69.0382,-19.1918 72,-18.707 72,-18 72,-16.8398 64.0239,-16.2779 54.2408,-16.3141"/>
<polygon fill="#000000" stroke="#000000" points="54.2408,-19.6859 64.1368,-14.9617 59.2395,-19.5732 64.2382,-19.4605 64.2382,-19.4605 64.2382,-19.4605 59.2395,-19.5732 64.3396,-23.9594 54.2408,-19.6859 54.2408,-19.6859"/>
</g>
<!-- A0&#45;&gt;A0 -->
<g id="edge2" class="edge">
<title>A0&#45;&gt;A0</title>
<path fill="none" stroke="#000000" stroke-dasharray="5,2" d="M64.2386,-21.3653C78.3418,-21.4926 90,-20.3708 90,-18 90,-15.082 72.3402,-14.0562 54.1975,-14.9225"/>
<polygon fill="#000000" stroke="#000000" points="54.1975,-21.0775 64.3224,-16.8659 59.1955,-21.2208 64.1934,-21.3641 64.1934,-21.3641 64.1934,-21.3641 59.1955,-21.2208 64.0645,-25.8622 54.1975,-21.0775 54.1975,-21.0775"/>
</g>
<!-- A0&#45;&gt;A0 -->
<g id="edge3" class="edge">
<title>A0&#45;&gt;A0</title>
<path fill="none" stroke="#000000" stroke-dasharray="5,2" d="M64.3759,-22.7405C86.832,-23.8063 108,-22.2262 108,-18 108,-13.1484 80.1035,-11.7839 54.3864,-13.9065"/>
<polygon fill="#000000" stroke="#000000" points="54.3864,-22.0935 64.6564,-18.2493 59.376,-22.4167 64.3655,-22.7399 64.3655,-22.7399 64.3655,-22.7399 59.376,-22.4167 64.0746,-27.2305 54.3864,-22.0935 54.3864,-22.0935"/>
</g>
<!-- A0&#45;&gt;A0 -->
<g id="edge4" class="edge">
<title>A0&#45;&gt;A0</title>
<path fill="none" stroke="#000000" stroke-dasharray="5,2" d="M64.3046,-23.7792C94.6119,-26.133 126,-24.2066 126,-18 126,-11.0918 87.1144,-9.4862 54.1148,-13.1831"/>
<polygon fill="#000000" stroke="#000000" points="54.1148,-22.8169 64.4936,-19.2771 59.0926,-23.287 64.0705,-23.7572 64.0705,-23.7572 64.0705,-23.7572 59.0926,-23.287 63.6473,-28.2372 54.1148,-22.8169 54.1148,-22.8169"/>
</g>
</g>
</svg>
